<?xml version="1.0" encoding="UTF-8" standalone="no"?>
<!-- Created with Inkscape (http://www.inkscape.org/) -->

<svg
   xmlns:dc="http://purl.org/dc/elements/1.1/"
   xmlns:cc="http://creativecommons.org/ns#"
   xmlns:rdf="http://www.w3.org/1999/02/22-rdf-syntax-ns#"
   xmlns:svg="http://www.w3.org/2000/svg"
   xmlns="http://www.w3.org/2000/svg"
   xmlns:sodipodi="http://sodipodi.sourceforge.net/DTD/sodipodi-0.dtd"
   xmlns:inkscape="http://www.inkscape.org/namespaces/inkscape"
   width="128"
   height="128"
   id="svg3963"
   version="1.1"
   inkscape:version="0.48.1 r9760"
   sodipodi:docname="cyantubes.svg">
  <defs
     id="defs3965" />
  <sodipodi:namedview
     id="base"
     pagecolor="#ffffff"
     bordercolor="#666666"
     borderopacity="1.0"
     inkscape:pageopacity="0.0"
     inkscape:pageshadow="2"
     inkscape:zoom="3.959798"
     inkscape:cx="33.40357"
     inkscape:cy="64.988253"
     inkscape:document-units="px"
     inkscape:current-layer="layer1"
     showgrid="false"
     inkscape:window-width="1280"
     inkscape:window-height="753"
     inkscape:window-x="-2"
     inkscape:window-y="24"
     inkscape:window-maximized="1" />
  <metadata
     id="metadata3968">
    <rdf:RDF>
      <cc:Work
         rdf:about="">
        <dc:format>image/svg+xml</dc:format>
        <dc:type
           rdf:resource="http://purl.org/dc/dcmitype/StillImage" />
        <dc:title></dc:title>
      </cc:Work>
    </rdf:RDF>
  </metadata>
  <g
     inkscape:label="Layer 1"
     inkscape:groupmode="layer"
     id="layer1"
     transform="translate(0,-924.3622)">
    <rect
       style="fill:#8c8aea;fill-opacity:1;stroke:#474747;stroke-width:1;stroke-opacity:1"
       id="rect4031"
       width="95"
       height="95"
       x="0.5"
       y="924.86218"
       rx="0"
       ry="0" />
    <rect
       ry="0"
       rx="0"
       y="925.36218"
       x="1"
       height="95"
       width="95"
       id="rect4067"
       style="fill:#8c8aea;fill-opacity:1;stroke:#474747;stroke-width:0;stroke-miterlimit:4;stroke-opacity:1;stroke-dasharray:none" />
    <path
       sodipodi:type="arc"
       style="fill:#2926b5;fill-opacity:1;stroke:none"
       id="path4607"
       sodipodi:cx="752.09644"
       sodipodi:cy="287.25577"
       sodipodi:rx="7.6897864"
       sodipodi:ry="7.6897864"
       d="m 759.78622,287.25577 a 7.6897864,7.6897864 0 1 1 -15.37957,0 7.6897864,7.6897864 0 1 1 15.37957,0 z"
       transform="matrix(2.3908046,0,0,2.3908046,-1770.1881,265.616)" />
    <path
       transform="matrix(2.3908046,0,0,2.3908046,-1730.1881,265.616)"
       d="m 759.78622,287.25577 a 7.6897864,7.6897864 0 1 1 -15.37957,0 7.6897864,7.6897864 0 1 1 15.37957,0 z"
       sodipodi:ry="7.6897864"
       sodipodi:rx="7.6897864"
       sodipodi:cy="287.25577"
       sodipodi:cx="752.09644"
       id="path4671"
       style="fill:#2926b5;fill-opacity:1;stroke:none"
       sodipodi:type="arc" />
    <path
       sodipodi:type="arc"
       style="fill:#2926b5;fill-opacity:1;stroke:none"
       id="path4673"
       sodipodi:cx="752.09644"
       sodipodi:cy="287.25577"
       sodipodi:rx="7.6897864"
       sodipodi:ry="7.6897864"
       d="m 759.78622,287.25577 a 7.6897864,7.6897864 0 1 1 -15.37957,0 7.6897864,7.6897864 0 1 1 15.37957,0 z"
       transform="matrix(2.3908046,0,0,2.3908046,-1730.1881,305.616)" />
    <path
       transform="matrix(2.3908046,0,0,2.3908046,-1770.6881,306.616)"
       d="m 759.78622,287.25577 a 7.6897864,7.6897864 0 1 1 -15.37957,0 7.6897864,7.6897864 0 1 1 15.37957,0 z"
       sodipodi:ry="7.6897864"
       sodipodi:rx="7.6897864"
       sodipodi:cy="287.25577"
       sodipodi:cx="752.09644"
       id="path4675"
       style="fill:#2926b5;fill-opacity:1;stroke:none"
       sodipodi:type="arc" />
    <path
       transform="matrix(2.9425287,0,0,2.9425287,-2165.3493,128.15088)"
       d="m 759.78622,287.25577 a 7.6897864,7.6897864 0 1 1 -15.37957,0 7.6897864,7.6897864 0 1 1 15.37957,0 z"
       sodipodi:ry="7.6897864"
       sodipodi:rx="7.6897864"
       sodipodi:cy="287.25577"
       sodipodi:cx="752.09644"
       id="path4611"
       style="fill:#5753ff;fill-opacity:1;stroke:none"
       sodipodi:type="arc" />
  </g>
</svg>
