<?xml version="1.0" encoding="UTF-8" standalone="no"?>
<!-- Created with Inkscape (http://www.inkscape.org/) -->

<svg
   xmlns:dc="http://purl.org/dc/elements/1.1/"
   xmlns:cc="http://creativecommons.org/ns#"
   xmlns:rdf="http://www.w3.org/1999/02/22-rdf-syntax-ns#"
   xmlns:svg="http://www.w3.org/2000/svg"
   xmlns="http://www.w3.org/2000/svg"
   xmlns:xlink="http://www.w3.org/1999/xlink"
   xmlns:sodipodi="http://sodipodi.sourceforge.net/DTD/sodipodi-0.dtd"
   xmlns:inkscape="http://www.inkscape.org/namespaces/inkscape"
   width="1024"
   height="768"
   id="svg2"
   version="1.1"
   inkscape:version="0.48.1 r9760"
   sodipodi:docname="mainmenu1.svg">
  <defs
     id="defs4">
    <linearGradient
       id="linearGradient3822">
      <stop
         style="stop-color:#88b3ad;stop-opacity:1;"
         offset="0"
         id="stop3824" />
      <stop
         style="stop-color:#aadf26;stop-opacity:1;"
         offset="1"
         id="stop3826" />
    </linearGradient>
    <linearGradient
       id="linearGradient3816">
      <stop
         id="stop3818"
         offset="0"
         style="stop-color:#333333;stop-opacity:1;" />
      <stop
         id="stop3820"
         offset="1"
         style="stop-color:#333333;stop-opacity:0;" />
    </linearGradient>
    <linearGradient
       id="linearGradient4773">
      <stop
         id="stop4775"
         offset="0"
         style="stop-color:#ffffff;stop-opacity:1;" />
      <stop
         id="stop4777"
         offset="1"
         style="stop-color:#bebebe;stop-opacity:1;" />
    </linearGradient>
    <linearGradient
       id="linearGradient4751">
      <stop
         id="stop4753"
         offset="0"
         style="stop-color:#202237;stop-opacity:1;" />
      <stop
         id="stop4755"
         offset="1"
         style="stop-color:#000000;stop-opacity:1;" />
    </linearGradient>
    <inkscape:perspective
       sodipodi:type="inkscape:persp3d"
       inkscape:vp_x="0 : 384 : 1"
       inkscape:vp_y="0 : 1000 : 0"
       inkscape:vp_z="1024 : 384 : 1"
       inkscape:persp3d-origin="512 : 256 : 1"
       id="perspective4650" />
    <linearGradient
       inkscape:collect="always"
       xlink:href="#linearGradient4773"
       id="linearGradient4771"
       x1="552.16919"
       y1="706.36115"
       x2="552.16919"
       y2="808.50696"
       gradientUnits="userSpaceOnUse" />
    <linearGradient
       inkscape:collect="always"
       xlink:href="#linearGradient3822"
       id="linearGradient3814"
       x1="505.07626"
       y1="286.52448"
       x2="505.07626"
       y2="1044.3051"
       gradientUnits="userSpaceOnUse" />
    <linearGradient
       inkscape:collect="always"
       xlink:href="#linearGradient4773-5"
       id="linearGradient4771-0"
       x1="552.16919"
       y1="706.36115"
       x2="552.16919"
       y2="808.50696"
       gradientUnits="userSpaceOnUse" />
    <linearGradient
       id="linearGradient4773-5">
      <stop
         id="stop4775-3"
         offset="0"
         style="stop-color:#ffffff;stop-opacity:1;" />
      <stop
         id="stop4777-2"
         offset="1"
         style="stop-color:#bebebe;stop-opacity:1;" />
    </linearGradient>
    <linearGradient
       inkscape:collect="always"
       xlink:href="#linearGradient4773-5"
       id="linearGradient3033"
       x1="552.16919"
       y1="706.36115"
       x2="552.16919"
       y2="808.50696"
       gradientUnits="userSpaceOnUse" />
    <linearGradient
       id="linearGradient3035">
      <stop
         id="stop3037"
         offset="0"
         style="stop-color:#ffffff;stop-opacity:1;" />
      <stop
         id="stop3039"
         offset="1"
         style="stop-color:#bebebe;stop-opacity:1;" />
    </linearGradient>
    <linearGradient
       inkscape:collect="always"
       xlink:href="#linearGradient4773-9"
       id="linearGradient4771-1"
       x1="552.16919"
       y1="706.36115"
       x2="552.16919"
       y2="808.50696"
       gradientUnits="userSpaceOnUse" />
    <linearGradient
       id="linearGradient4773-9">
      <stop
         id="stop4775-7"
         offset="0"
         style="stop-color:#ffffff;stop-opacity:1;" />
      <stop
         id="stop4777-6"
         offset="1"
         style="stop-color:#bebebe;stop-opacity:1;" />
    </linearGradient>
    <linearGradient
       inkscape:collect="always"
       xlink:href="#linearGradient4773-9"
       id="linearGradient3062"
       x1="552.16919"
       y1="706.36115"
       x2="552.16919"
       y2="808.50696"
       gradientUnits="userSpaceOnUse" />
    <linearGradient
       id="linearGradient3064">
      <stop
         id="stop3066"
         offset="0"
         style="stop-color:#ffffff;stop-opacity:1;" />
      <stop
         id="stop3068"
         offset="1"
         style="stop-color:#bebebe;stop-opacity:1;" />
    </linearGradient>
    <linearGradient
       inkscape:collect="always"
       xlink:href="#linearGradient4773-9"
       id="linearGradient4075"
       gradientUnits="userSpaceOnUse"
       x1="552.16919"
       y1="706.36115"
       x2="552.16919"
       y2="808.50696" />
    <linearGradient
       inkscape:collect="always"
       xlink:href="#linearGradient4773-0"
       id="linearGradient3077"
       gradientUnits="userSpaceOnUse"
       x1="552.16919"
       y1="706.36115"
       x2="552.16919"
       y2="808.50696" />
    <linearGradient
       id="linearGradient4773-0">
      <stop
         id="stop4775-6"
         offset="0"
         style="stop-color:#ffffff;stop-opacity:1;" />
      <stop
         id="stop4777-4"
         offset="1"
         style="stop-color:#bebebe;stop-opacity:1;" />
    </linearGradient>
    <linearGradient
       inkscape:collect="always"
       xlink:href="#linearGradient4773-0"
       id="linearGradient3093"
       gradientUnits="userSpaceOnUse"
       x1="552.16919"
       y1="706.36115"
       x2="552.16919"
       y2="808.50696" />
    <linearGradient
       id="linearGradient3095">
      <stop
         id="stop3097"
         offset="0"
         style="stop-color:#ffffff;stop-opacity:1;" />
      <stop
         id="stop3099"
         offset="1"
         style="stop-color:#bebebe;stop-opacity:1;" />
    </linearGradient>
  </defs>
  <sodipodi:namedview
     id="base"
     pagecolor="#ffffff"
     bordercolor="#666666"
     borderopacity="1.0"
     inkscape:pageopacity="0.0"
     inkscape:pageshadow="2"
     inkscape:zoom="0.7"
     inkscape:cx="649.83788"
     inkscape:cy="279.46123"
     inkscape:document-units="px"
     inkscape:current-layer="layer1"
     showgrid="false"
     inkscape:window-width="1280"
     inkscape:window-height="753"
     inkscape:window-x="-2"
     inkscape:window-y="24"
     inkscape:window-maximized="1"
     showguides="true"
     inkscape:guide-bbox="true" />
  <metadata
     id="metadata7">
    <rdf:RDF>
      <cc:Work
         rdf:about="">
        <dc:format>image/svg+xml</dc:format>
        <dc:type
           rdf:resource="http://purl.org/dc/dcmitype/StillImage" />
        <dc:title />
      </cc:Work>
    </rdf:RDF>
  </metadata>
  <g
     inkscape:label="Layer 1"
     inkscape:groupmode="layer"
     id="layer1"
     transform="translate(0,-284.36218)">
    <rect
       style="fill:url(#linearGradient3814);fill-opacity:1;stroke:none"
       id="rect3030"
       width="1024"
       height="768"
       x="0"
       y="284.36215" />
    <rect
       style="fill:#3b3b3b;fill-opacity:1;stroke:none"
       id="rect3753"
       width="1024"
       height="145.14285"
       x="0"
       y="907.2193" />
    <g
       id="g4405">
      <path
         style="fill:#5a4300;fill-opacity:1;stroke:none"
         d="m 753.54116,631.62641 c 0,0 -6.88701,6.91678 -11.89136,13.86841 -5.09391,7.07605 -2.74326,20.89707 -10.82608,31.86723 -8.08285,10.97013 -52.96125,20.23939 -52.96125,20.23939 0,0 40.90608,-11.53887 48.05859,-23.11146 7.15252,-11.57258 4.88613,-27.19922 9.48013,-33.58082 4.71469,-6.54927 11.55641,-14.15515 11.55641,-14.15515 8.6741,-3.39812 10.11769,0.24155 6.5835,4.87249 z"
         id="path3893"
         inkscape:connector-curvature="0"
         sodipodi:nodetypes="cszczsccc" />
      <rect
         transform="matrix(-0.58424134,0.81157998,-0.81157998,-0.58424134,0,0)"
         style="fill:#5a4300;fill-opacity:1"
         id="rect7742"
         width="81.479774"
         height="58.608261"
         x="-8.0316591"
         y="-1004.9061"
         rx="12.150493"
         ry="12.150493" />
      <path
         style="fill:#5a4300;fill-opacity:1;stroke:none"
         d="M 815.36993,604.39477 795.2829,632.298 787.25529,620.58818 800.91446,601.61396 z"
         id="path7744"
         inkscape:connector-curvature="0"
         sodipodi:nodetypes="ccccc" />
      <path
         sodipodi:nodetypes="ccccc"
         inkscape:connector-curvature="0"
         id="path7746"
         d="m 751.82549,559.09064 -20.08702,27.90325 13.65199,3.89691 13.65918,-18.97421 z"
         style="fill:#5a4300;fill-opacity:1;stroke:none" />
      <rect
         transform="matrix(-0.58424134,0.81157998,-0.81157998,-0.58424134,0,0)"
         style="fill:#5a4300;fill-opacity:1"
         id="rect7748"
         width="7.8620834"
         height="35.379375"
         x="-12.677472"
         y="-994.185"
         rx="0"
         ry="0" />
      <rect
         ry="12.150493"
         rx="12.150493"
         y="-1001.2819"
         x="-8.7593966"
         height="58.608261"
         width="81.479774"
         id="rect7861"
         style="fill:#d19643;fill-opacity:1"
         transform="matrix(-0.58424134,0.81157998,-0.81157998,-0.58424134,0,0)" />
      <path
         sodipodi:nodetypes="ccccc"
         inkscape:connector-curvature="0"
         id="path7863"
         d="M 812.85381,601.68677 792.76678,629.59 784.73917,617.88018 798.39834,598.90596 z"
         style="fill:#ff9d00;fill-opacity:1;stroke:none" />
      <path
         style="fill:#ffb300;fill-opacity:1;stroke:none"
         d="m 749.30937,556.38264 -20.08702,27.90325 13.65199,3.89691 13.65918,-18.97421 z"
         id="path7865"
         inkscape:connector-curvature="0"
         sodipodi:nodetypes="ccccc" />
      <rect
         ry="0"
         rx="0"
         y="-990.56085"
         x="-13.40521"
         height="35.379375"
         width="7.8620834"
         id="rect7867"
         style="fill:#634500;fill-opacity:1"
         transform="matrix(-0.58424134,0.81157998,-0.81157998,-0.58424134,0,0)" />
      <path
         sodipodi:nodetypes="cszczsccc"
         inkscape:connector-curvature="0"
         id="path7869"
         d="m 751.54116,629.62641 c 0,0 -6.88701,6.91678 -11.89136,13.86841 -5.09391,7.07605 -2.74326,20.89707 -10.82608,31.86723 -8.08285,10.97013 -52.96125,20.23939 -52.96125,20.23939 0,0 40.90608,-11.53887 48.05859,-23.11146 7.15252,-11.57258 4.88613,-27.19922 9.48013,-33.58082 4.71469,-6.54927 11.55641,-14.15515 11.55641,-14.15515 8.6741,-3.39812 10.11769,0.24155 6.5835,4.87249 z"
         style="fill:#9d8458;fill-opacity:1;stroke:none" />
    </g>
    <g
       id="g4077"
       transform="translate(-75.392291,-43.736029)">
      <g
         id="g4256"
         transform="matrix(0.61753839,0,0,0.61753839,106.03293,87.23467)">
        <g
           id="g4258">
          <path
             sodipodi:type="arc"
             style="fill:#ffffff;fill-opacity:1;stroke:none"
             id="path4260"
             sodipodi:cx="184.5"
             sodipodi:cy="155.5"
             sodipodi:rx="37.5"
             sodipodi:ry="37.5"
             d="m 222,155.5 c 0,20.71068 -16.78932,37.5 -37.5,37.5 -20.71068,0 -37.5,-16.78932 -37.5,-37.5 0,0 0,0 0,0"
             transform="matrix(0.21316477,0,0,0.21316477,421.77192,703.15039)"
             sodipodi:start="0"
             sodipodi:end="3.1415927"
             sodipodi:open="true" />
          <path
             sodipodi:open="true"
             sodipodi:end="3.1415927"
             sodipodi:start="0"
             transform="matrix(0.21316477,0,0,-0.21316477,421.77192,770.14583)"
             d="m 222,155.5 c 0,20.71068 -16.78932,37.5 -37.5,37.5 -20.71068,0 -37.5,-16.78932 -37.5,-37.5 0,0 0,0 0,0"
             sodipodi:ry="37.5"
             sodipodi:rx="37.5"
             sodipodi:cy="155.5"
             sodipodi:cx="184.5"
             id="path4262"
             style="fill:#ffffff;fill-opacity:1;stroke:none"
             sodipodi:type="arc" />
        </g>
        <path
           inkscape:connector-curvature="0"
           id="path4264"
           d="m 453.10715,736.85847 c 0,4.41479 3.57889,7.99368 7.99367,7.99368 4.41479,0 7.99368,-3.57889 7.99368,-7.99368 -0.0695,1.719 -3.62234,3.10281 -7.99368,3.10281 -4.37133,0 -7.92419,-1.38381 -7.99367,-3.10281 z"
           style="fill:#cccccc;fill-opacity:1;stroke:none" />
      </g>
      <g
         transform="translate(-93.405297,-229.46249)"
         id="g3937">
        <g
           id="g3939">
          <path
             sodipodi:open="true"
             sodipodi:end="3.1415927"
             sodipodi:start="0"
             transform="matrix(0.21316477,0,0,0.21316477,421.77192,703.15039)"
             d="m 222,155.5 c 0,20.71068 -16.78932,37.5 -37.5,37.5 -20.71068,0 -37.5,-16.78932 -37.5,-37.5 0,0 0,0 0,0"
             sodipodi:ry="37.5"
             sodipodi:rx="37.5"
             sodipodi:cy="155.5"
             sodipodi:cx="184.5"
             id="path3941"
             style="fill:#ffffff;fill-opacity:1;stroke:none"
             sodipodi:type="arc" />
          <path
             sodipodi:type="arc"
             style="fill:#ffffff;fill-opacity:1;stroke:none"
             id="path3943"
             sodipodi:cx="184.5"
             sodipodi:cy="155.5"
             sodipodi:rx="37.5"
             sodipodi:ry="37.5"
             d="m 222,155.5 c 0,20.71068 -16.78932,37.5 -37.5,37.5 -20.71068,0 -37.5,-16.78932 -37.5,-37.5 0,0 0,0 0,0"
             transform="matrix(0.21316477,0,0,-0.21316477,421.77192,770.14583)"
             sodipodi:start="0"
             sodipodi:end="3.1415927"
             sodipodi:open="true" />
        </g>
        <path
           style="fill:#cccccc;fill-opacity:1;stroke:none"
           d="m 453.10715,736.85847 c 0,4.41479 3.57889,7.99368 7.99367,7.99368 4.41479,0 7.99368,-3.57889 7.99368,-7.99368 -0.0695,1.719 -3.62234,3.10281 -7.99368,3.10281 -4.37133,0 -7.92419,-1.38381 -7.99367,-3.10281 z"
           id="path3945"
           inkscape:connector-curvature="0" />
      </g>
      <g
         id="g3947"
         transform="translate(-67.646407,-266.33306)">
        <g
           id="g3949">
          <path
             sodipodi:type="arc"
             style="fill:#ffffff;fill-opacity:1;stroke:none"
             id="path3951"
             sodipodi:cx="184.5"
             sodipodi:cy="155.5"
             sodipodi:rx="37.5"
             sodipodi:ry="37.5"
             d="m 222,155.5 c 0,20.71068 -16.78932,37.5 -37.5,37.5 -20.71068,0 -37.5,-16.78932 -37.5,-37.5 0,0 0,0 0,0"
             transform="matrix(0.21316477,0,0,0.21316477,421.77192,703.15039)"
             sodipodi:start="0"
             sodipodi:end="3.1415927"
             sodipodi:open="true" />
          <path
             sodipodi:open="true"
             sodipodi:end="3.1415927"
             sodipodi:start="0"
             transform="matrix(0.21316477,0,0,-0.21316477,421.77192,770.14583)"
             d="m 222,155.5 c 0,20.71068 -16.78932,37.5 -37.5,37.5 -20.71068,0 -37.5,-16.78932 -37.5,-37.5 0,0 0,0 0,0"
             sodipodi:ry="37.5"
             sodipodi:rx="37.5"
             sodipodi:cy="155.5"
             sodipodi:cx="184.5"
             id="path3953"
             style="fill:#ffffff;fill-opacity:1;stroke:none"
             sodipodi:type="arc" />
        </g>
        <path
           inkscape:connector-curvature="0"
           id="path3955"
           d="m 453.10715,736.85847 c 0,4.41479 3.57889,7.99368 7.99367,7.99368 4.41479,0 7.99368,-3.57889 7.99368,-7.99368 -0.0695,1.719 -3.62234,3.10281 -7.99368,3.10281 -4.37133,0 -7.92419,-1.38381 -7.99367,-3.10281 z"
           style="fill:#cccccc;fill-opacity:1;stroke:none" />
      </g>
      <g
         transform="matrix(1.695029,0,0,1.695029,-397.21622,-819.38224)"
         id="g3957">
        <g
           id="g3959">
          <path
             sodipodi:open="true"
             sodipodi:end="3.1415927"
             sodipodi:start="0"
             transform="matrix(0.21316477,0,0,0.21316477,421.77192,703.15039)"
             d="m 222,155.5 c 0,20.71068 -16.78932,37.5 -37.5,37.5 -20.71068,0 -37.5,-16.78932 -37.5,-37.5 0,0 0,0 0,0"
             sodipodi:ry="37.5"
             sodipodi:rx="37.5"
             sodipodi:cy="155.5"
             sodipodi:cx="184.5"
             id="path3961"
             style="fill:#ffffff;fill-opacity:1;stroke:none"
             sodipodi:type="arc" />
          <path
             sodipodi:type="arc"
             style="fill:#ffffff;fill-opacity:1;stroke:none"
             id="path3963"
             sodipodi:cx="184.5"
             sodipodi:cy="155.5"
             sodipodi:rx="37.5"
             sodipodi:ry="37.5"
             d="m 222,155.5 c 0,20.71068 -16.78932,37.5 -37.5,37.5 -20.71068,0 -37.5,-16.78932 -37.5,-37.5 0,0 0,0 0,0"
             transform="matrix(0.21316477,0,0,-0.21316477,421.77192,770.14583)"
             sodipodi:start="0"
             sodipodi:end="3.1415927"
             sodipodi:open="true" />
        </g>
        <path
           style="fill:#cccccc;fill-opacity:1;stroke:none"
           d="m 453.10715,736.85847 c 0,4.41479 3.57889,7.99368 7.99367,7.99368 4.41479,0 7.99368,-3.57889 7.99368,-7.99368 -0.0695,1.719 -3.62234,3.10281 -7.99368,3.10281 -4.37133,0 -7.92419,-1.38381 -7.99367,-3.10281 z"
           id="path3965"
           inkscape:connector-curvature="0" />
      </g>
    </g>
    <g
       transform="matrix(0.83185841,0,0,0.83185841,130.51275,323.13439)"
       id="g4476">
      <path
         sodipodi:type="arc"
         style="fill:#adab00;fill-opacity:1;stroke:none"
         id="path4478"
         sodipodi:cx="184.5"
         sodipodi:cy="155.5"
         sodipodi:rx="37.5"
         sodipodi:ry="37.5"
         d="m 222,155.5 c 0,20.71068 -16.78932,37.5 -37.5,37.5 -20.71068,0 -37.5,-16.78932 -37.5,-37.5 0,0 0,0 0,0"
         transform="matrix(0.76,0,0,0.76,241.28,432.68218)"
         sodipodi:start="0"
         sodipodi:end="3.1415927"
         sodipodi:open="true" />
      <g
         id="g4480">
        <path
           sodipodi:type="arc"
           style="fill:#adab00;fill-opacity:1;stroke:none"
           id="path4482"
           sodipodi:cx="184.5"
           sodipodi:cy="155.5"
           sodipodi:rx="37.5"
           sodipodi:ry="37.5"
           d="m 222,155.5 c 0,20.71068 -16.78932,37.5 -37.5,37.5 -20.71068,0 -37.5,-16.78932 -37.5,-37.5 0,0 0,0 0,0"
           transform="matrix(0.76,0,0,-0.76,241.28,671.54218)"
           sodipodi:start="0"
           sodipodi:end="3.1415927"
           sodipodi:open="true" />
        <path
           inkscape:connector-curvature="0"
           id="path4484"
           d="m 353,552.86218 c 0,15.74012 12.75988,28.5 28.5,28.5 15.74012,0 28.5,-12.75988 28.5,-28.5 -0.24773,6.12876 -12.91479,11.0625 -28.5,11.0625 -15.58521,0 -28.25227,-4.93374 -28.5,-11.0625 z"
           style="fill:#5d6200;fill-opacity:1;stroke:none" />
      </g>
    </g>
    <g
       transform="matrix(0.58504594,0,0,0.58504594,-107.53084,532.66325)"
       id="g3011">
      <text
         sodipodi:linespacing="125%"
         id="text4757"
         y="802.41772"
         x="266.96161"
         style="font-size:119.64895629999999471px;font-style:italic;font-variant:normal;font-weight:normal;font-stretch:normal;line-height:125%;letter-spacing:0px;word-spacing:0px;fill:#000000;fill-opacity:1;stroke:none;font-family:Lucida Sans;-inkscape-font-specification:Sans"
         xml:space="preserve"><tspan
           style="font-style:normal;font-variant:normal;font-weight:bold;font-stretch:normal;font-family:Gudea;-inkscape-font-specification:Gudea Bold"
           y="802.41772"
           x="266.96161"
           id="tspan4759"
           sodipodi:role="line">CELLURIA</tspan></text>
      <text
         xml:space="preserve"
         style="font-size:119.64895629999999471px;font-style:italic;font-variant:normal;font-weight:normal;font-stretch:normal;line-height:125%;letter-spacing:0px;word-spacing:0px;fill:url(#linearGradient3077);fill-opacity:1;stroke:none;font-family:Lucida Sans;-inkscape-font-specification:Sans"
         x="262.96161"
         y="798.41772"
         id="text4761"
         sodipodi:linespacing="125%"><tspan
           sodipodi:role="line"
           id="tspan4763"
           x="262.96161"
           y="798.41772"
           style="font-style:normal;font-variant:normal;font-weight:bold;font-stretch:normal;fill:url(#linearGradient3077);fill-opacity:1;font-family:Gudea;-inkscape-font-specification:Gudea Bold">CELLURIA</tspan></text>
      <text
         sodipodi:linespacing="125%"
         id="text4779"
         y="798.41772"
         x="262.96161"
         style="font-size:119.64895629999999471px;font-style:italic;font-variant:normal;font-weight:normal;font-stretch:normal;line-height:125%;letter-spacing:0px;word-spacing:0px;fill:#000000;fill-opacity:0;stroke:#c4c4c4;stroke-width:1.70926749999999994;stroke-opacity:1;font-family:Lucida Sans;-inkscape-font-specification:Sans"
         xml:space="preserve"><tspan
           style="font-style:normal;font-variant:normal;font-weight:bold;font-stretch:normal;fill:#000000;fill-opacity:0;stroke:#c4c4c4;stroke-width:1.70926749999999994;stroke-opacity:1;font-family:Gudea;-inkscape-font-specification:Gudea Bold"
           y="798.41772"
           x="262.96161"
           id="tspan4781"
           sodipodi:role="line">CELLURIA</tspan></text>
    </g>
    <rect
       ry="6.3475165"
       rx="7.6559415"
       y="931.13837"
       x="616.44043"
       height="25.35483"
       width="175.54231"
       id="rect4237"
       style="fill:#1a1a1a;fill-opacity:1;stroke:none" />
    <text
       xml:space="preserve"
       style="font-size:16px;font-style:normal;font-variant:normal;font-weight:normal;font-stretch:normal;text-align:end;line-height:125%;letter-spacing:0px;word-spacing:0px;text-anchor:end;fill:#ffffff;fill-opacity:1;stroke:none;font-family:Gudea;-inkscape-font-specification:Gudea"
       x="781.25861"
       y="948.64789"
       id="text4243"
       sodipodi:linespacing="125%"><tspan
         sodipodi:role="line"
         id="tspan4245"
         x="781.25861"
         y="948.64789"
         style="font-style:normal;font-variant:normal;font-weight:normal;font-stretch:normal;text-align:end;text-anchor:end;fill:#ffffff;font-family:Gudea;-inkscape-font-specification:Gudea">Quick Game</tspan></text>
    <rect
       style="fill:#1a1a1a;fill-opacity:1;stroke:none"
       id="rect4262"
       width="175.54231"
       height="25.35483"
       x="616.44043"
       y="965.13837"
       rx="7.6559415"
       ry="6.3475165" />
    <text
       sodipodi:linespacing="125%"
       id="text4264"
       y="982.64789"
       x="781.25861"
       style="font-size:16px;font-style:normal;font-variant:normal;font-weight:normal;font-stretch:normal;text-align:end;line-height:125%;letter-spacing:0px;word-spacing:0px;text-anchor:end;fill:#ffffff;fill-opacity:1;stroke:none;font-family:Gudea;-inkscape-font-specification:Gudea"
       xml:space="preserve"><tspan
         style="font-style:normal;font-variant:normal;font-weight:normal;font-stretch:normal;text-align:end;text-anchor:end;fill:#ffffff;font-family:Gudea;-inkscape-font-specification:Gudea"
         y="982.64789"
         x="781.25861"
         id="tspan4266"
         sodipodi:role="line">Skirmish</tspan></text>
    <rect
       ry="6.3475165"
       rx="7.6559415"
       y="999.13837"
       x="616.44043"
       height="25.35483"
       width="175.54231"
       id="rect4270"
       style="fill:#1a1a1a;fill-opacity:1;stroke:none" />
    <text
       xml:space="preserve"
       style="font-size:16px;font-style:normal;font-variant:normal;font-weight:normal;font-stretch:normal;text-align:end;line-height:125%;letter-spacing:0px;word-spacing:0px;text-anchor:end;fill:#ffffff;fill-opacity:1;stroke:none;font-family:Gudea;-inkscape-font-specification:Gudea"
       x="781.25861"
       y="1016.6479"
       id="text4272"
       sodipodi:linespacing="125%"><tspan
         sodipodi:role="line"
         id="tspan4274"
         x="781.25861"
         y="1016.6479"
         style="font-style:normal;font-variant:normal;font-weight:normal;font-stretch:normal;text-align:end;text-anchor:end;fill:#ffffff;font-family:Gudea;-inkscape-font-specification:Gudea">Multiplayer</tspan></text>
    <rect
       style="fill:#1a1a1a;fill-opacity:1;stroke:none"
       id="rect4294"
       width="175.54231"
       height="25.35483"
       x="816.44043"
       y="931.13837"
       rx="7.6559415"
       ry="6.3475165" />
    <text
       sodipodi:linespacing="125%"
       id="text4296"
       y="948.64789"
       x="981.25861"
       style="font-size:16px;font-style:normal;font-variant:normal;font-weight:normal;font-stretch:normal;text-align:end;line-height:125%;letter-spacing:0px;word-spacing:0px;text-anchor:end;fill:#ffffff;fill-opacity:1;stroke:none;font-family:Gudea;-inkscape-font-specification:Gudea"
       xml:space="preserve"><tspan
         style="font-style:normal;font-variant:normal;font-weight:normal;font-stretch:normal;text-align:end;text-anchor:end;fill:#ffffff;font-family:Gudea;-inkscape-font-specification:Gudea"
         y="948.64789"
         x="981.25861"
         id="tspan4298"
         sodipodi:role="line">Options</tspan></text>
    <rect
       ry="6.3475165"
       rx="7.6559415"
       y="965.13837"
       x="816.44043"
       height="25.35483"
       width="175.54231"
       id="rect4302"
       style="fill:#1a1a1a;fill-opacity:1;stroke:none" />
    <text
       xml:space="preserve"
       style="font-size:16px;font-style:normal;font-variant:normal;font-weight:normal;font-stretch:normal;text-align:end;line-height:125%;letter-spacing:0px;word-spacing:0px;text-anchor:end;fill:#ffffff;fill-opacity:1;stroke:none;font-family:Gudea;-inkscape-font-specification:Gudea"
       x="981.25861"
       y="982.64789"
       id="text4304"
       sodipodi:linespacing="125%"><tspan
         sodipodi:role="line"
         id="tspan4306"
         x="981.25861"
         y="982.64789"
         style="font-style:normal;font-variant:normal;font-weight:normal;font-stretch:normal;text-align:end;text-anchor:end;fill:#ffffff;font-family:Gudea;-inkscape-font-specification:Gudea">Credits</tspan></text>
    <rect
       style="fill:#1a1a1a;fill-opacity:1;stroke:none"
       id="rect4310"
       width="175.54231"
       height="25.35483"
       x="816.44043"
       y="999.13837"
       rx="7.6559415"
       ry="6.3475165" />
    <text
       sodipodi:linespacing="125%"
       id="text4312"
       y="1016.6479"
       x="981.25861"
       style="font-size:16px;font-style:normal;font-variant:normal;font-weight:normal;font-stretch:normal;text-align:end;line-height:125%;letter-spacing:0px;word-spacing:0px;text-anchor:end;fill:#ffffff;fill-opacity:1;stroke:none;font-family:Gudea;-inkscape-font-specification:Gudea"
       xml:space="preserve"><tspan
         style="font-style:normal;font-variant:normal;font-weight:normal;font-stretch:normal;text-align:end;text-anchor:end;fill:#ffffff;font-family:Gudea;-inkscape-font-specification:Gudea"
         y="1016.6479"
         x="981.25861"
         id="tspan4314"
         sodipodi:role="line">Quit</tspan></text>
  </g>
</svg>
