<?xml version="1.0" encoding="UTF-8" standalone="no"?>
<!-- Created with Inkscape (http://www.inkscape.org/) -->

<svg
   xmlns:dc="http://purl.org/dc/elements/1.1/"
   xmlns:cc="http://creativecommons.org/ns#"
   xmlns:rdf="http://www.w3.org/1999/02/22-rdf-syntax-ns#"
   xmlns:svg="http://www.w3.org/2000/svg"
   xmlns="http://www.w3.org/2000/svg"
   xmlns:sodipodi="http://sodipodi.sourceforge.net/DTD/sodipodi-0.dtd"
   xmlns:inkscape="http://www.inkscape.org/namespaces/inkscape"
   width="64"
   height="64"
   id="svg3963"
   version="1.1"
   inkscape:version="0.48.1 r9760"
   sodipodi:docname="apple.svg">
  <defs
     id="defs3965" />
  <sodipodi:namedview
     id="base"
     pagecolor="#ffffff"
     bordercolor="#666666"
     borderopacity="1.0"
     inkscape:pageopacity="0.0"
     inkscape:pageshadow="2"
     inkscape:zoom="5.6"
     inkscape:cx="15.611703"
     inkscape:cy="22.319598"
     inkscape:document-units="px"
     inkscape:current-layer="layer1"
     showgrid="false"
     inkscape:window-width="1280"
     inkscape:window-height="753"
     inkscape:window-x="-2"
     inkscape:window-y="24"
     inkscape:window-maximized="1" />
  <metadata
     id="metadata3968">
    <rdf:RDF>
      <cc:Work
         rdf:about="">
        <dc:format>image/svg+xml</dc:format>
        <dc:type
           rdf:resource="http://purl.org/dc/dcmitype/StillImage" />
        <dc:title></dc:title>
      </cc:Work>
    </rdf:RDF>
  </metadata>
  <g
     inkscape:label="Layer 1"
     inkscape:groupmode="layer"
     id="layer1"
     transform="translate(0,-988.3622)">
    <g
       transform="translate(-12.440232,447.69228)"
       id="g5553">
      <rect
         ry="4.25"
         rx="4.25"
         y="544.66992"
         x="16.440231"
         height="44.547726"
         width="44.547726"
         id="rect4711"
         style="fill:#f8ff1e;fill-opacity:1;stroke:none" />
      <rect
         style="fill:#f9ff68;fill-opacity:1;stroke:none"
         id="rect4713"
         width="44.547726"
         height="44.547726"
         x="14.440232"
         y="542.66992"
         rx="4.25"
         ry="4.25" />
      <path
         sodipodi:open="true"
         sodipodi:end="3.1415927"
         sodipodi:start="0"
         transform="matrix(0.46100494,0,0,0.46100494,-47.225203,492.46807)"
         d="m 222,155.5 c 0,20.71068 -16.78932,37.5 -37.5,37.5 -20.71068,0 -37.5,-16.78932 -37.5,-37.5 0,0 0,0 0,0"
         sodipodi:ry="37.5"
         sodipodi:rx="37.5"
         sodipodi:cy="155.5"
         sodipodi:cx="184.5"
         id="path4436-5"
         style="fill:#d4d13c;fill-opacity:1;stroke:none"
         sodipodi:type="arc" />
      <path
         sodipodi:type="arc"
         style="fill:#d4d13c;fill-opacity:1;stroke:none"
         id="path4438-6"
         sodipodi:cx="184.5"
         sodipodi:cy="155.5"
         sodipodi:rx="37.5"
         sodipodi:ry="37.5"
         d="m 222,155.5 c 0,20.71068 -16.78932,37.5 -37.5,37.5 -20.71068,0 -37.5,-16.78932 -37.5,-37.5 0,0 0,0 0,0"
         transform="matrix(0.46100494,0,0,-0.46100494,-47.225203,637.35708)"
         sodipodi:start="0"
         sodipodi:end="3.1415927"
         sodipodi:open="true" />
      <path
         inkscape:connector-curvature="0"
         id="path4440-7"
         d="m 20.542524,565.36751 c 0,9.54773 7.739957,17.28769 17.287685,17.28769 9.547728,0 17.287685,-7.73996 17.287685,-17.28769 -0.150269,3.71762 -7.833923,6.71036 -17.287685,6.71036 -9.453761,0 -17.137416,-2.99274 -17.287685,-6.71036 z"
         style="fill:#9ea431;fill-opacity:1;stroke:none" />
    </g>
  </g>
</svg>
