<?xml version="1.0" encoding="UTF-8" standalone="no"?>
<!-- Created with Inkscape (http://www.inkscape.org/) -->

<svg
   xmlns:dc="http://purl.org/dc/elements/1.1/"
   xmlns:cc="http://creativecommons.org/ns#"
   xmlns:rdf="http://www.w3.org/1999/02/22-rdf-syntax-ns#"
   xmlns:svg="http://www.w3.org/2000/svg"
   xmlns="http://www.w3.org/2000/svg"
   xmlns:sodipodi="http://sodipodi.sourceforge.net/DTD/sodipodi-0.dtd"
   xmlns:inkscape="http://www.inkscape.org/namespaces/inkscape"
   width="64"
   height="64"
   id="svg3963"
   version="1.1"
   inkscape:version="0.48.1 r9760"
   sodipodi:docname="yellowsphere.svg">
  <defs
     id="defs3965" />
  <sodipodi:namedview
     id="base"
     pagecolor="#ffffff"
     bordercolor="#666666"
     borderopacity="1.0"
     inkscape:pageopacity="0.0"
     inkscape:pageshadow="2"
     inkscape:zoom="5.6"
     inkscape:cx="6.9086794"
     inkscape:cy="33.244059"
     inkscape:document-units="px"
     inkscape:current-layer="layer1"
     showgrid="false"
     inkscape:window-width="1280"
     inkscape:window-height="753"
     inkscape:window-x="-2"
     inkscape:window-y="24"
     inkscape:window-maximized="1" />
  <metadata
     id="metadata3968">
    <rdf:RDF>
      <cc:Work
         rdf:about="">
        <dc:format>image/svg+xml</dc:format>
        <dc:type
           rdf:resource="http://purl.org/dc/dcmitype/StillImage" />
        <dc:title></dc:title>
      </cc:Work>
    </rdf:RDF>
  </metadata>
  <g
     inkscape:label="Layer 1"
     inkscape:groupmode="layer"
     id="layer1"
     transform="translate(0,-988.3622)">
    <g
       transform="translate(-734,521.00002)"
       id="g8469">
      <rect
         ry="0"
         rx="0"
         y="467.86218"
         x="734.5"
         height="64"
         width="64"
         id="rect4155"
         style="fill:#7fbaff;fill-opacity:1;stroke:#474747;stroke-width:1;stroke-opacity:1" />
      <g
         transform="matrix(0.56132178,-0.5420578,0.5420578,0.56132178,44.08212,421.43836)"
         id="g4621">
        <path
           transform="matrix(0.9255677,0,0,0.9255677,109.9104,314.8864)"
           d="m 565,419 c 0,2.62335 -2.12665,4.75 -4.75,4.75 -2.62335,0 -4.75,-2.12665 -4.75,-4.75 0,-2.62335 2.12665,-4.75 4.75,-4.75 2.62335,0 4.75,2.12665 4.75,4.75 z"
           sodipodi:ry="4.75"
           sodipodi:rx="4.75"
           sodipodi:cy="419"
           sodipodi:cx="560.25"
           id="path4619"
           style="fill:#5b7bcf;fill-opacity:1;stroke:none"
           sodipodi:type="arc" />
        <rect
           style="fill:#5b7bcf;fill-opacity:1;stroke:none"
           id="rect4613"
           width="66.5"
           height="8.75"
           x="562"
           y="414"
           transform="translate(0,284.36218)" />
        <path
           sodipodi:type="arc"
           style="fill:#2f5aca;fill-opacity:1;stroke:none"
           id="path4615"
           sodipodi:cx="560.25"
           sodipodi:cy="419"
           sodipodi:rx="4.75"
           sodipodi:ry="4.75"
           d="m 565,419 c 0,2.62335 -2.12665,4.75 -4.75,4.75 -2.62335,0 -4.75,-2.12665 -4.75,-4.75 0,-2.62335 2.12665,-4.75 4.75,-4.75 2.62335,0 4.75,2.12665 4.75,4.75 z"
           transform="matrix(0.9255677,0,0,0.9255677,43.9104,314.8864)" />
      </g>
      <g
         id="g4626"
         transform="matrix(0.56132178,-0.5420578,0.5420578,0.56132178,51.922837,428.72141)">
        <path
           sodipodi:type="arc"
           style="fill:#5b7bcf;fill-opacity:1;stroke:none"
           id="path4628"
           sodipodi:cx="560.25"
           sodipodi:cy="419"
           sodipodi:rx="4.75"
           sodipodi:ry="4.75"
           d="m 565,419 c 0,2.62335 -2.12665,4.75 -4.75,4.75 -2.62335,0 -4.75,-2.12665 -4.75,-4.75 0,-2.62335 2.12665,-4.75 4.75,-4.75 2.62335,0 4.75,2.12665 4.75,4.75 z"
           transform="matrix(0.9255677,0,0,0.9255677,109.9104,314.8864)" />
        <rect
           transform="translate(0,284.36218)"
           y="414"
           x="562"
           height="8.75"
           width="66.5"
           id="rect4630"
           style="fill:#5b7bcf;fill-opacity:1;stroke:none" />
        <path
           transform="matrix(0.9255677,0,0,0.9255677,43.9104,314.8864)"
           d="m 565,419 c 0,2.62335 -2.12665,4.75 -4.75,4.75 -2.62335,0 -4.75,-2.12665 -4.75,-4.75 0,-2.62335 2.12665,-4.75 4.75,-4.75 2.62335,0 4.75,2.12665 4.75,4.75 z"
           sodipodi:ry="4.75"
           sodipodi:rx="4.75"
           sodipodi:cy="419"
           sodipodi:cx="560.25"
           id="path4632"
           style="fill:#2f5aca;fill-opacity:1;stroke:none"
           sodipodi:type="arc" />
      </g>
      <g
         transform="matrix(0.56132178,-0.5420578,0.5420578,0.56132178,59.763475,436.00444)"
         id="g4634">
        <path
           transform="matrix(0.9255677,0,0,0.9255677,109.9104,314.8864)"
           d="m 565,419 c 0,2.62335 -2.12665,4.75 -4.75,4.75 -2.62335,0 -4.75,-2.12665 -4.75,-4.75 0,-2.62335 2.12665,-4.75 4.75,-4.75 2.62335,0 4.75,2.12665 4.75,4.75 z"
           sodipodi:ry="4.75"
           sodipodi:rx="4.75"
           sodipodi:cy="419"
           sodipodi:cx="560.25"
           id="path4636"
           style="fill:#5b7bcf;fill-opacity:1;stroke:none"
           sodipodi:type="arc" />
        <rect
           style="fill:#5b7bcf;fill-opacity:1;stroke:none"
           id="rect4638"
           width="66.5"
           height="8.75"
           x="562"
           y="414"
           transform="translate(0,284.36218)" />
        <path
           sodipodi:type="arc"
           style="fill:#2f5aca;fill-opacity:1;stroke:none"
           id="path4640"
           sodipodi:cx="560.25"
           sodipodi:cy="419"
           sodipodi:rx="4.75"
           sodipodi:ry="4.75"
           d="m 565,419 c 0,2.62335 -2.12665,4.75 -4.75,4.75 -2.62335,0 -4.75,-2.12665 -4.75,-4.75 0,-2.62335 2.12665,-4.75 4.75,-4.75 2.62335,0 4.75,2.12665 4.75,4.75 z"
           transform="matrix(0.9255677,0,0,0.9255677,43.9104,314.8864)" />
      </g>
    </g>
  </g>
</svg>
