<?xml version="1.0" encoding="UTF-8" standalone="no"?>
<!-- Created with Inkscape (http://www.inkscape.org/) -->

<svg
   xmlns:dc="http://purl.org/dc/elements/1.1/"
   xmlns:cc="http://creativecommons.org/ns#"
   xmlns:rdf="http://www.w3.org/1999/02/22-rdf-syntax-ns#"
   xmlns:svg="http://www.w3.org/2000/svg"
   xmlns="http://www.w3.org/2000/svg"
   xmlns:sodipodi="http://sodipodi.sourceforge.net/DTD/sodipodi-0.dtd"
   xmlns:inkscape="http://www.inkscape.org/namespaces/inkscape"
   width="64"
   height="64"
   id="svg3963"
   version="1.1"
   inkscape:version="0.48.1 r9760"
   sodipodi:docname="yellowsphere.svg">
  <defs
     id="defs3965" />
  <sodipodi:namedview
     id="base"
     pagecolor="#ffffff"
     bordercolor="#666666"
     borderopacity="1.0"
     inkscape:pageopacity="0.0"
     inkscape:pageshadow="2"
     inkscape:zoom="3.959798"
     inkscape:cx="0.66729583"
     inkscape:cy="30.001856"
     inkscape:document-units="px"
     inkscape:current-layer="layer1"
     showgrid="false"
     inkscape:window-width="1280"
     inkscape:window-height="753"
     inkscape:window-x="-2"
     inkscape:window-y="24"
     inkscape:window-maximized="1" />
  <metadata
     id="metadata3968">
    <rdf:RDF>
      <cc:Work
         rdf:about="">
        <dc:format>image/svg+xml</dc:format>
        <dc:type
           rdf:resource="http://purl.org/dc/dcmitype/StillImage" />
        <dc:title></dc:title>
      </cc:Work>
    </rdf:RDF>
  </metadata>
  <g
     inkscape:label="Layer 1"
     inkscape:groupmode="layer"
     id="layer1"
     transform="translate(0,-988.3622)">
    <g
       transform="translate(-254,457.00002)"
       id="g8560">
      <rect
         ry="0"
         rx="0"
         y="531.86218"
         x="254.5"
         height="64"
         width="64"
         id="rect3829"
         style="fill:#8aad80;fill-opacity:1;stroke:#474747;stroke-width:1;stroke-opacity:1" />
      <path
         sodipodi:type="arc"
         style="fill:#369f12;fill-opacity:1;stroke:none"
         id="path4498"
         sodipodi:cx="184.5"
         sodipodi:cy="155.5"
         sodipodi:rx="37.5"
         sodipodi:ry="37.5"
         d="m 222,155.5 c 0,20.71068 -16.78932,37.5 -37.5,37.5 -20.71068,0 -37.5,-16.78932 -37.5,-37.5 0,0 0,0 0,0"
         transform="matrix(0.63221239,0,0,0.63221239,170.31478,464.18147)"
         sodipodi:start="0"
         sodipodi:end="3.1415927"
         sodipodi:open="true" />
      <path
         style="fill:#137928;fill-opacity:1;stroke:none"
         d="m 263.25,564.15421 c 0,13.09356 10.61441,23.70797 23.70797,23.70797 13.09355,0 23.70796,-10.61441 23.70796,-23.70797 -0.20608,5.09826 -10.74328,9.20244 -23.70796,9.20244 -12.96469,0 -23.50189,-4.10418 -23.70797,-9.20244 z"
         id="path4504"
         inkscape:connector-curvature="0" />
      <path
         sodipodi:type="arc"
         style="fill:#369f12;fill-opacity:1;stroke:none"
         id="path4512"
         sodipodi:cx="184.5"
         sodipodi:cy="155.5"
         sodipodi:rx="37.5"
         sodipodi:ry="37.5"
         d="m 222,155.5 c 0,20.71068 -16.78932,37.5 -37.5,37.5 -20.71068,0 -37.5,-16.78932 -37.5,-37.5 0,0 0,0 0,0"
         transform="matrix(0.63221239,0,0,-0.22554574,170.31478,599.64251)"
         sodipodi:start="0"
         sodipodi:end="3.1415927"
         sodipodi:open="true" />
    </g>
  </g>
</svg>
