<?xml version="1.0" encoding="UTF-8" standalone="no"?>
<!-- Created with Inkscape (http://www.inkscape.org/) -->

<svg
   xmlns:dc="http://purl.org/dc/elements/1.1/"
   xmlns:cc="http://creativecommons.org/ns#"
   xmlns:rdf="http://www.w3.org/1999/02/22-rdf-syntax-ns#"
   xmlns:svg="http://www.w3.org/2000/svg"
   xmlns="http://www.w3.org/2000/svg"
   xmlns:sodipodi="http://sodipodi.sourceforge.net/DTD/sodipodi-0.dtd"
   xmlns:inkscape="http://www.inkscape.org/namespaces/inkscape"
   width="64"
   height="64"
   id="svg3963"
   version="1.1"
   inkscape:version="0.48.1 r9760"
   sodipodi:docname="greenstoragecorner_j.svg">
  <defs
     id="defs3965" />
  <sodipodi:namedview
     id="base"
     pagecolor="#ffffff"
     bordercolor="#666666"
     borderopacity="1.0"
     inkscape:pageopacity="0.0"
     inkscape:pageshadow="2"
     inkscape:zoom="5.6"
     inkscape:cx="6.9086794"
     inkscape:cy="33.244059"
     inkscape:document-units="px"
     inkscape:current-layer="layer1"
     showgrid="false"
     inkscape:window-width="1280"
     inkscape:window-height="753"
     inkscape:window-x="-2"
     inkscape:window-y="24"
     inkscape:window-maximized="1" />
  <metadata
     id="metadata3968">
    <rdf:RDF>
      <cc:Work
         rdf:about="">
        <dc:format>image/svg+xml</dc:format>
        <dc:type
           rdf:resource="http://purl.org/dc/dcmitype/StillImage" />
        <dc:title></dc:title>
      </cc:Work>
    </rdf:RDF>
  </metadata>
  <g
     inkscape:label="Layer 1"
     inkscape:groupmode="layer"
     id="layer1"
     transform="translate(0,-988.3622)">
    <g
       transform="translate(-382,329.00002)"
       id="g8444">
      <rect
         ry="0"
         rx="0"
         y="659.86218"
         x="382.5"
         height="64"
         width="64"
         id="rect3925"
         style="fill:#fffd76;fill-opacity:1;stroke:#474747;stroke-width:1;stroke-opacity:1" />
      <g
         id="g4486"
         transform="matrix(0.83185841,0,0,0.83185841,96.603982,230.25116)">
        <path
           sodipodi:open="true"
           sodipodi:end="3.1415927"
           sodipodi:start="0"
           transform="matrix(0.76,0,0,0.76,241.28,432.68218)"
           d="m 222,155.5 c 0,20.71068 -16.78932,37.5 -37.5,37.5 -20.71068,0 -37.5,-16.78932 -37.5,-37.5 0,0 0,0 0,0"
           sodipodi:ry="37.5"
           sodipodi:rx="37.5"
           sodipodi:cy="155.5"
           sodipodi:cx="184.5"
           id="path4488"
           style="fill:#adab00;fill-opacity:1;stroke:none"
           sodipodi:type="arc" />
        <g
           id="g4490">
          <path
             sodipodi:open="true"
             sodipodi:end="3.1415927"
             sodipodi:start="0"
             transform="matrix(0.76,0,0,-0.76,241.28,671.54218)"
             d="m 222,155.5 c 0,20.71068 -16.78932,37.5 -37.5,37.5 -20.71068,0 -37.5,-16.78932 -37.5,-37.5 0,0 0,0 0,0"
             sodipodi:ry="37.5"
             sodipodi:rx="37.5"
             sodipodi:cy="155.5"
             sodipodi:cx="184.5"
             id="path4492"
             style="fill:#adab00;fill-opacity:1;stroke:none"
             sodipodi:type="arc" />
          <path
             style="fill:#5d6200;fill-opacity:1;stroke:none"
             d="m 353,552.86218 c 0,15.74012 12.75988,28.5 28.5,28.5 15.74012,0 28.5,-12.75988 28.5,-28.5 -0.24773,6.12876 -12.91479,11.0625 -28.5,11.0625 -15.58521,0 -28.25227,-4.93374 -28.5,-11.0625 z"
             id="path4494"
             inkscape:connector-curvature="0" />
        </g>
      </g>
    </g>
  </g>
</svg>
